<svg xmlns="http://www.w3.org/2000/svg" xmlns:xlink="http://www.w3.org/1999/xlink" version="1.1" x="0px" y="0px" viewBox="0 0 100 125" enable-background="new 0 0 100 100" xml:space="preserve"><g><path d="M50.208,40.416c2.716,0,5.402-6.043,7.768-17.475C59.6,15.093,60.509,6.5,60.69,4.913H39.494   c0.189,1.59,1.205,10.178,2.864,18.023C44.776,34.372,47.49,40.416,50.208,40.416z M40.822,7.53c0,0,3.092-0.937,9.181-0.937   c6.088,0,9.211,0.913,9.211,0.913l-0.174,0.9c0,0-3.56-0.893-9.059-0.893s-9.011,0.907-9.011,0.907L40.822,7.53z M50.003,8.436   c5.532,0,8.833,0.857,8.833,0.857s-3.345,26.672-8.855,26.672S41.127,9.293,41.127,9.293S44.472,8.436,50.003,8.436z"/><path d="M61.25,4.924c0,0-3.91,36.138-11.042,36.138c-7.13,0-11.206-36.138-11.206-36.138h-1.402v89.999h24.8V4.924H61.25z"/></g><text x="0" y="115" fill="#000000" font-size="5px" font-weight="bold" font-family="'Helvetica Neue', Helvetica, Arial-Unicode, Arial, Sans-serif">Created by Hussain Khalil</text><text x="0" y="120" fill="#000000" font-size="5px" font-weight="bold" font-family="'Helvetica Neue', Helvetica, Arial-Unicode, Arial, Sans-serif">from the Noun Project</text></svg>